<svg t="1611559370992" class="icon" viewBox="0 0 1024 1024" version="1.1" xmlns="http://www.w3.org/2000/svg" p-id="3054" width="200" height="200"><path d="M408 988c0 4.4 3.6 8 8 8s8-3.6 8-8V844h-16v144zM440 988c0 4.4 3.6 8 8 8s8-3.6 8-8V844h-16v144zM472 988c0 4.4 3.6 8 8 8s8-3.6 8-8V844h-16v144zM504 988c0 4.4 3.6 8 8 8s8-3.6 8-8V844h-16v144zM536 988c0 4.4 3.6 8 8 8s8-3.6 8-8V844h-16v144zM568 988c0 4.4 3.6 8 8 8s8-3.6 8-8V844h-16v144zM600 988c0 4.4 3.6 8 8 8s8-3.6 8-8V844h-16v144z" fill="#FF9A98" p-id="3055"></path><path d="M660.6 108.3c0.1-0.1 0.1-0.2 0.2-0.3H363.2c0.1 0.1 0.1 0.2 0.2 0.3-73 3.6-131.4 63.9-131.4 137.8v379.7c0 73.9 58.4 134.2 131.4 137.8-0.1 0.1-0.1 0.2-0.2 0.3H660.8c-0.1-0.1-0.1-0.2-0.2-0.3 73-3.6 131.4-63.9 131.4-137.8V246.1c0-73.9-58.4-134.2-131.4-137.8zM480.1 732h-83.4c-24.8-22.3-40.5-54.2-40.5-89.7V229.7c0-35.5 15.7-67.5 40.5-89.7h83.4c-50.7 0-91.9 40.2-91.9 89.7v412.5c0 49.6 41.3 89.8 91.9 89.8z m187.7-89.7c0 35.5-15.7 67.5-40.5 89.7h-83.4c50.7 0 91.9-40.2 91.9-89.7V229.7c0-49.5-41.2-89.7-91.9-89.7h83.4c24.8 22.3 40.5 54.2 40.5 89.7v412.6zM392 92h272V56.9c0-16-13-28.9-28.9-28.9H388.9C373 28 360 41 360 56.9V92h32zM632 780H360v35.1c0 16 13 28.9 28.9 28.9h246.2c16 0 28.9-13 28.9-28.9V780h-32z" fill="#F6554D" p-id="3056"></path></svg>