<svg t="1611561228798" class="icon" viewBox="0 0 1024 1024" version="1.1" xmlns="http://www.w3.org/2000/svg" p-id="3593" width="200" height="200"><path d="M762.4 718.7v32.1c0 53.2-43.5 96.7-96.7 96.7H434c-53.2 0-96.7-43.5-96.7-96.7V388.3c0-53.2 43.5-96.7 96.7-96.7h231.7c53.2 0 96.7 43.5 96.7 96.7v331.8-1.4z" fill="#FFF5C5" p-id="3594"></path><path d="M620.8 844.5H373.3c-65.3 0-118.4-53.1-118.4-118.4V338.8c0-65.3 53.1-118.4 118.4-118.4h247.5c65.3 0 118.4 53.1 118.4 118.4v387.3c0 65.3-53.1 118.4-118.4 118.4z m-247.5-594c-48.7 0-88.3 39.6-88.3 88.3v387.3c0 48.7 39.6 88.3 88.3 88.3h247.5c48.7 0 88.3-39.6 88.3-88.3V338.8c0-48.7-39.6-88.3-88.3-88.3H373.3zM401 959.1c-4 0-7.8-2.1-9.9-5.8-3-5.4-1-12.2 4.5-15.2 26.4-14.4 29.1-43.2 29.1-43.5 0.5-6.2 5.9-10.8 12.1-10.2 6.2 0.5 10.8 5.9 10.2 12.1-0.1 1.7-3.8 41.2-40.7 61.3-1.6 0.9-3.5 1.3-5.3 1.3zM462.2 959.1c-4 0-7.8-2.1-9.9-5.8-3-5.4-1-12.2 4.5-15.2 26.4-14.4 29.1-43.2 29.1-43.5 0.5-6.2 5.9-10.8 12.1-10.2 6.2 0.5 10.8 5.9 10.2 12.1-0.1 1.7-3.8 41.2-40.7 61.3-1.7 0.9-3.5 1.3-5.3 1.3zM523.3 959.1c-4 0-7.8-2.1-9.9-5.8-3-5.4-1-12.2 4.5-15.2 26.4-14.4 29.1-43.2 29.1-43.5 0.5-6.2 5.9-10.8 12.1-10.2 6.2 0.5 10.8 5.9 10.2 12.1-0.1 1.7-3.8 41.2-40.7 61.3-1.6 0.9-3.5 1.3-5.3 1.3z" fill="#E22B60" p-id="3595"></path><path d="M270.9 345.2h452.3v34.9H270.9zM270.9 457.6h452.3v34.9H270.9zM270.9 570h452.3v34.9H270.9zM270.9 682.3h452.3v34.9H270.9zM572.1 189.7l0.1 29.9-0.1 0.1h-150l-0.1-0.1v-29.9l0.1-0.1h150m0-30H422c-16.5 0-30.1 13.5-30.1 30.1v30c0 16.5 13.5 30.1 30.1 30.1h150.1c16.5 0 30.1-13.5 30.1-30.1v-30c0-16.5-13.5-30.1-30.1-30.1zM572.1 842.8c0 0.1 0 0.1 0 0l0.1 29.9-0.1 0.1h-150l-0.1-0.1v-29.9l0.1-0.1h150m0-29.9H422c-16.5 0-30.1 13.5-30.1 30.1v30c0 16.5 13.5 30.1 30.1 30.1h150.1c16.5 0 30.1-13.5 30.1-30.1v-30c0-16.6-13.5-30.1-30.1-30.1zM497.1 97.9c-8.3 0-15-6.7-15-15v-2.1c0-8.3 6.7-15 15-15s15 6.7 15 15v2.1c0 8.2-6.7 15-15 15z" fill="#E22B60" p-id="3596"></path><path d="M497.1 179.9c-8.3 0-15-6.7-15-15v-35.4c0-8.3 6.7-15 15-15s15 6.7 15 15v35.4c0 8.2-6.7 15-15 15z" fill="#E22B60" p-id="3597"></path></svg>